<svg width="41" height="41" viewBox="0 0 41 41" fill="none" xmlns="http://www.w3.org/2000/svg">
<path d="M24.0409 31.7822C20.7796 30.534 17.425 30.3419 14.35 31.2061C12.2068 31.7822 10.1568 32.9344 8.2932 34.3747L6.98863 35.5269L6.61591 35.911L7.45454 36.6792C7.54772 36.6792 7.54773 36.7752 7.64091 36.8712C7.82728 37.0632 8.01365 37.1593 8.2932 37.3513L8.85226 37.7354L9.41136 37.2553C9.50454 37.1593 9.69091 36.9672 9.87727 36.8712C11.5545 35.4309 13.4182 34.4707 15.375 33.9906C17.8909 33.3185 20.5932 33.4145 23.2954 34.4707C25.5318 35.3349 30.0977 36.3911 35.5955 33.9906L35.7818 33.8946L36.0614 33.6066C36.0614 33.5106 36.1546 33.5105 36.2477 33.4145C36.7137 32.8384 37.1796 32.2623 37.5523 31.5902L39.4159 28.6136L36.4341 30.3419C32.0545 32.8384 28.0477 33.3185 24.0409 31.7822Z" fill="white"/>
<path d="M11.275 21.4122C13.7909 20.74 16.4932 20.836 19.1954 21.8922C22.1773 23.0445 29.8182 24.6768 38.3909 16.7072L39.7886 15.267L39.8818 15.1709L40.2545 14.7869L40.0682 14.3068C39.975 13.9227 39.7886 13.4426 39.6022 12.9625L39.1363 11.6182L38.2045 12.5784C38.1113 12.7705 37.925 12.8665 37.7386 13.0585C33.6386 17.3794 27.3022 21.7962 20.0341 19.1077C16.7727 17.8595 13.4182 17.6674 10.3432 18.5316C7.36134 19.3958 4.75225 21.0281 2.32952 23.3325V23.2365L0.93179 24.7728C0.93179 24.8688 0.838626 24.8688 0.745444 24.9649L0.465881 25.2529L0.559069 25.637C0.652251 26.1171 0.838609 26.5972 0.93179 27.0773L1.49089 28.6136L2.42271 27.3653C2.51589 27.1733 2.70225 27.0773 2.79543 26.8852C4.75225 25.0609 7.45452 22.4684 11.275 21.4122Z" fill="white"/>
<path d="M2.23639 19.6838C4.37957 17.3794 6.80228 15.9391 9.41137 15.1709C11.9273 14.4988 14.6295 14.5948 17.3318 15.651C25.7182 18.8196 32.9864 13.6346 36.1546 10.8501L37.3659 9.60186L37.8318 9.21776L37.4591 8.64167C37.1796 8.35361 36.9932 7.96953 36.7137 7.58546L36.1546 6.81729L35.5023 7.48943C35.4091 7.58545 35.2227 7.77748 35.1296 7.8735C31.2159 11.7143 25.1591 15.651 18.2636 12.9625C15.0023 11.7143 11.6477 11.5222 8.57274 12.3864C6.61592 12.9625 4.75228 13.9227 2.88864 15.1709L0.931818 16.8033C0.745454 16.9953 0.652273 17.0913 0.465909 17.2834L0.279563 17.4754V17.7635C0.186381 18.4356 0.186369 19.1077 0.0931875 19.6838L0 22.0843L1.5841 20.3559C1.77047 20.1639 1.95684 19.8759 2.23639 19.6838Z" fill="white"/>
<path d="M26.7432 38.3115L26.5568 38.8876L26.7432 38.3115C26.4636 38.2155 26.2773 38.1195 25.9977 38.0234C22.7364 36.7752 19.3818 36.5832 16.3068 37.4473C15.6545 37.6394 15.0023 37.8314 14.35 38.1195L12.1136 39.1757L11.5546 39.4637L13.4182 40.1359C13.9773 40.3279 14.5364 40.5199 15.0955 40.712L15.375 40.808L15.6546 40.712C15.9341 40.616 16.2136 40.4239 16.4932 40.4239C16.6796 40.4239 16.8659 40.3279 17.0523 40.2319C19.2887 39.6558 21.7114 39.6558 24.3205 40.5199C24.6 40.6159 24.7864 40.712 25.0659 40.808L25.5318 41L25.8114 40.904C26.4636 40.712 27.2091 40.5199 27.7682 40.2319L30.3773 39.2717L27.675 38.5996C27.3955 38.5035 27.0227 38.4075 26.7432 38.3115Z" fill="white"/>
<path d="M41 18.4355L39.6023 19.8758C39.4159 20.0679 39.2296 20.2599 39.0432 20.4519C35.2227 24.1967 29.0727 28.2295 22.1773 25.5409C18.9159 24.2927 15.5614 24.1007 12.4864 24.9648C9.59775 25.829 6.98863 27.3653 4.65909 29.6698L3.44773 31.014L3.07501 31.4941L3.44773 32.0702C3.72728 32.4543 3.91365 32.7424 4.10002 33.1264L4.65909 33.9906L5.31137 33.1264C5.40455 33.0304 5.59091 32.8384 5.68409 32.7423C7.92046 30.2458 10.3432 28.7095 13.1386 27.9414C15.6545 27.2693 18.3568 27.3653 21.0591 28.4215C23.3886 29.2857 25.8114 29.5737 28.2341 29.2857C32.5205 28.8056 36.8068 26.3091 39.975 23.5246C40.1614 23.3325 40.3477 23.2365 40.5341 23.0445L40.8136 22.7564V22.4683C40.8136 21.8922 40.9068 21.2201 40.9068 20.644L41 18.4355Z" fill="white"/>
<path d="M5.59091 9.60191L5.31138 9.0258L5.59091 9.60191C6.15 9.31386 6.8023 9.12181 7.36139 8.92977C9.8773 8.25764 12.5796 8.35366 15.2818 9.40986C17.0523 10.082 18.8228 10.3701 20.7796 10.3701C24.6932 10.3701 28.6068 8.92978 32.2409 6.14523L33.6386 4.993L34.1046 4.60893L33.2659 3.93678C32.9864 3.64873 32.6136 3.36068 32.2409 3.16865L31.6818 2.78458L31.2159 3.16865C31.0296 3.26466 30.9364 3.4567 30.75 3.55271C25.8114 7.39347 20.8728 8.44968 16.2137 6.62533C12.8591 5.37708 9.50456 5.08903 6.15001 6.14523C5.87046 6.24125 5.59092 6.33726 5.21819 6.43328L5.03185 6.5293L4.75228 6.81735C4.75228 6.91337 4.65912 6.91338 4.56594 7.0094C4.19321 7.58551 3.72728 8.06561 3.35456 8.64173L1.58411 11.4263L4.47275 9.88996C4.93866 9.88996 5.31137 9.69793 5.59091 9.60191Z" fill="white"/>
<path d="M13.2318 3.07258L13.5114 3.16861C14.7227 3.6487 16.5864 4.1288 18.9159 4.1288C21.3387 4.1288 23.6682 3.55268 25.9978 2.59249L28.8864 1.15221L26.9296 0.480094C26.3705 0.288056 25.8114 0.0960188 25.1591 0H24.8796L24.6 0.0959953C24.3205 0.192014 24.0409 0.384075 23.7614 0.480094C20.9659 1.5363 18.1705 1.72834 15.4682 0.960188C15.1886 0.864169 14.9091 0.768133 14.6296 0.672114L14.35 0.576089L14.0705 0.672114C13.5114 0.864151 12.9523 1.0562 12.3932 1.34426L10.25 2.30444L12.4864 2.97656C12.6727 2.88054 12.9523 2.97656 13.2318 3.07258Z" fill="white"/>
</svg>
